<?xml version="1.0" encoding="utf-8"?>
<!-- Generator: Adobe Illustrator 27.1.1, SVG Export Plug-In . SVG Version: 6.00 Build 0)  -->
<svg version="1.1" id="Capa_1" xmlns="http://www.w3.org/2000/svg" xmlns:xlink="http://www.w3.org/1999/xlink" x="0px" y="0px"
	 viewBox="0 0 200 200" style="enable-background:new 0 0 200 200;" xml:space="preserve">
<style type="text/css">
	.st0{fill:#9A918A;}
</style>
<g>
	<path class="st0" d="M125.4,122c19.9,0,36.1-15.7,36.1-35c0-19.2-16.2-34.9-36.1-34.9c-19.9,0-36.1,15.7-36.1,34.9
		C89.3,106.3,105.5,122,125.4,122 M125.5,54c8.9,0,9.8,10.7,9.8,33.9c0,26.8-3,32.3-9.8,32.3c-6.5,0-9.8-3.9-9.8-32.7
		C115.8,60,118.3,54,125.5,54 M18,55.8h-4.1v-1.6h31.7v8.7c2.3-7.6,9.9-10.7,18.9-10.7c10,0,20,6.2,20,20.4v43.3
		c0,3.1,0.8,4.7,3.4,4.7h4.6v1.4H54.9v-1.4h1.4c2.7,0,4.1-1.9,4.1-4.8V66.1c0-6.9-2.8-8.9-5.8-8.9c-4.7,0-9.1,6.3-9.1,15.4V122H22.1
		V61C22.1,57.9,20.8,55.8,18,55.8 M88,190.3h4.6v1.4H54.9v-1.4h1.4c2.7,0,4.1-1.9,4.1-4.8v-46.7c0-6.9-2.8-8.9-5.8-8.9
		c-4.7,0-9.1,6.3-9.1,15.5v40.8c0,3.3,2.2,4.2,3.3,4.2h2.3v1.4H12.7v-1.4h3.6c3.6,0,5.8-2.7,5.8-5.9v-59.6h23.5v10.7
		c2.3-7.6,9.9-10.7,18.9-10.7c10,0,20,6.2,20,20.4v40.4C84.6,188.8,85.5,190.3,88,190.3 M161.4,190c-1.6,0-2.8-1.2-2.8-4.3v-41.4
		c0-12.9-12.8-19.4-31.5-19.4c-22,0-32.2,8.6-32.2,17.5c0,8,6.9,12.9,14.2,12.9c7.4,0,13.8-5.8,13.8-12.7c0-5.8-5-10.9-11.8-10.9
		c-0.5,0-1.1,0.1-1.5,0.1c-0.3,0-0.5-0.1-0.5-0.7c0-1.8,6.8-4.9,13-4.9c6.2,0,10.1,2,10.1,12.9c0,15.1-9.6,16.9-17,18.6
		c-7.4,1.7-25.8,2.4-25.8,18.3c0,10.3,9.3,17.3,23.5,17.3c9.7,0,12.8-3.1,15.3-6.4c2.4-3.1,3.2-6.4,3.8-6.4
		c0.4,0,3.1,13.2,20.6,13.2C158.2,193.6,164.2,190,161.4,190 M131.6,151.7v20.6c0,8.1-6.1,17.7-10.3,17.7c-3.4,0-3.9-1.2-3.9-15
		c0-16.2,6.4-18.3,8.8-20c2.8-1.9,4.7-4.1,5-4.1c0.4,0,0.4,0.2,0.4,0.6V151.7z M187.3,181.3c0,6.8-5.5,12.3-12.3,12.3
		c-6.8,0-12.3-5.5-12.3-12.3c0-6.8,5.5-12.3,12.3-12.3C181.8,169,187.3,174.5,187.3,181.3 M29.4,40.2c-1.7,0-3-1.2-4-3.5
		c-0.7-1.8-1.1-3.7-1.1-5.8c0-2.8,0.2-6.4,0.7-10.7c0.6-4.5,1.2-8,2-10.5c0.1-2.2,0.7-3.3,1.6-3.3c2.1,0,3.2,1.6,3.3,4.8
		c0,2.6-0.4,5.8-1.4,9.5c-1,3.8-2.2,6.7-3.7,8.8c0,0.1-0.1,0.2-0.2,0.3c-0.1,0.2-0.3,0.4-0.5,0.6c-0.3,0.4-0.4,0.7-0.4,1.1
		c0,2.3,0.6,4.1,1.6,5.5c0.7,1,1.4,1.4,2,1.4c1.2,0,2.7-3.2,4.4-9.7c0.1-0.3,0.1-0.7,0.2-1.2c0.1-0.5,0.2-1,0.4-1.6
		c0.1-0.7,0.3-1,0.6-1c0.3,0,0.4,0.2,0.4,0.7c0,1.3-0.6,3.8-1.8,7.6C32.4,37.9,30.9,40.1,29.4,40.2 M29.7,8.2
		c-2.6,8.9-3.8,15.6-3.8,20.1c1.2-1.9,2.3-4.6,3.2-8.1c0.9-3.2,1.4-5.8,1.4-7.5C30.5,10.2,30.2,8.7,29.7,8.2 M47.6,25.3
		c0,1.4-0.4,3.1-1.2,5.1c-0.7,1.7-1.7,2.6-2.9,2.6c-0.2,0-0.7-0.2-1.7-0.6c-0.1,0.4-0.1,0.8-0.2,1.2c-0.1,0.5-0.2,1-0.3,1.5
		c-0.2,0.7-0.5,1.4-0.7,1.9c-0.2,0.5-0.4,0.9-0.5,1.2c-0.6,1-1.4,1.6-2.4,1.6c-2.4,0-3.6-2.4-3.6-7.2c0-3.1,0.2-5.1,0.7-6.2
		c0,0.1,0,0.1,0,0.1c0-0.1,0-0.2-0.1-0.4c0-0.2-0.1-0.4-0.1-0.5c0-0.2,0-0.3,0-0.3c0-0.3,0.1-0.5,0.3-0.7c0.1-0.2,0.1-0.4,0.2-0.7
		c0.1-0.3,0.2-0.8,0.3-1.3c0.2-1.1,0.8-1.7,1.6-1.7c0.8,0,1.7,0.3,2.6,1c0.9,0.7,1.6,1.4,1.8,2.2c0.3,0.8,0.4,3.1,0.5,7
		c0.5,0.3,0.9,0.5,1.2,0.5c1.1,0,2-0.7,2.5-1.9c0.3-0.5,0.6-1.8,1-3.8c0.1-0.6,0.3-0.9,0.6-0.9C47.5,24.9,47.6,25,47.6,25.3
		 M40.4,32.6c0-0.4,0-0.8-0.1-1.3c-0.1-0.5-0.2-1.1-0.3-1.8c-0.1-0.7-0.2-1.3-0.3-1.8c-0.1-0.5-0.1-0.9-0.1-1.3c0-0.2,0-0.6,0.1-1.1
		c0-0.5,0.1-0.8,0.1-1.1c0-1.1-0.5-1.7-1.6-1.7c-0.7,0-1.3,1.5-1.7,4.6c-0.4,2.6-0.7,4.6-0.6,6c0,3.5,0.8,5.2,2.2,5.2
		c0.4,0,0.8-0.7,1.4-2C40,34.7,40.4,33.5,40.4,32.6 M51.4,35.2c0,1.1-0.2,2.1-0.6,3.1c-0.6,1.1-1.4,1.7-2.4,1.7
		c-1,0-1.8-0.4-2.5-1.2c-0.5-0.5-0.8-1-0.8-1.5c0-0.6,0.1-1,0.4-1c0.2,0,0.3,0.3,0.3,0.8c0.6,1.2,1.2,1.8,1.8,1.8
		c1.5,0,2.2-1.3,2.2-3.8c0-1.1-0.4-2.8-1-5.1c-0.4-1.2-0.7-2.2-1.1-3c-0.1,0.5-0.3,1-0.5,1.7c-0.2,0.7-0.4,1.5-0.7,2.5
		c-0.3,1.1-0.7,1.7-1.2,1.7c-0.1,0-0.2,0-0.4-0.1c1.3-5,1.9-8.6,1.8-10.7c0-0.9,0.4-1.3,1.2-1.3c0.9,0,1.4,0.3,1.4,0.9
		c0,0.1,0,0.3-0.1,0.5c0,0.2-0.1,0.5-0.2,0.7C49,23,49,23.2,48.9,23.5c0,0.2-0.1,0.4-0.1,0.6c0,1.2,0.4,3.1,1.2,5.7
		C50.9,32.2,51.4,34,51.4,35.2 M68,33.3c0,1.1-0.2,2-0.6,3c-0.6,1.1-1.4,1.6-2.5,1.6c-1,0-1.8-0.4-2.5-1.1c-0.5-0.5-0.8-1-0.8-1.5
		c0-0.6,0.1-0.9,0.4-1c0.2,0,0.3,0.2,0.4,0.7c0.6,1.2,1.2,1.7,1.8,1.7c1.5,0,2.2-1.2,2.2-3.7c0-1.1-0.4-2.7-1-4.9
		c-0.4-1.1-0.7-2.1-1.1-2.9c-0.1,0.4-0.3,1-0.5,1.7c-0.2,0.7-0.4,1.5-0.7,2.4c-0.3,1.1-0.7,1.6-1.2,1.6c-0.1,0-0.2,0-0.4-0.1
		c1.3-4.8,1.9-8.2,1.8-10.3c0-0.8,0.4-1.3,1.2-1.3c0.9,0,1.4,0.3,1.4,0.9c0,0.1,0,0.2-0.1,0.5c0,0.2-0.1,0.5-0.2,0.7
		c-0.1,0.2-0.1,0.5-0.2,0.7c0,0.2-0.1,0.4-0.1,0.6c0,1.2,0.4,3,1.2,5.4C67.6,30.4,68,32.1,68,33.3 M80.1,36.4
		c-0.7,0-1.3-0.5-1.9-1.5c-0.1-0.2-0.4-1-0.9-2.4c-0.2,0.5-0.5,1.1-0.7,1.7c-0.3,0.6-0.5,1.2-0.8,1.8c-0.6,1-1.3,1.5-2.3,1.5
		c-0.8,0-1.5-0.4-2-1.4c-0.4-0.8-0.6-1.6-0.6-2.5c0-0.7,0-1.4,0-2.4c0-1,0.1-2.1,0.1-3.3c0.1-3.2,0.2-4.9,0.5-5.3
		c0.2-0.2,0.4-0.4,0.8-0.4c0.3,0,0.6,0.1,0.9,0.4c0.3,0.3,0.4,0.5,0.4,0.9c0,0.3-0.1,0.7-0.2,1.1c-0.1,0.3-0.1,0.6-0.2,0.7
		c0,0.2-0.1,0.3-0.1,0.4c-0.2,1.2-0.4,2.5-0.5,4c-0.1,1.4-0.1,3-0.1,4.7c0,1.4,0.3,2,1,2c0.5,0,0.9-0.4,1.3-1.2
		c0.2-0.3,0.3-0.6,0.4-0.9c0.1-0.3,0.3-0.6,0.4-0.9c0.7-1.6,1.2-3.6,1.5-6.1c0-0.1,0.1-0.3,0.1-0.6c0-0.3,0.1-0.8,0.2-1.4
		c0.1-0.4,0.1-0.8,0.2-1.1c0-0.3,0.1-0.6,0.1-0.9c0-0.7,0-1.2,0-1.5c0-0.3,0-0.4-0.1-0.3c0.1-0.8,0.4-1.2,1-1.1
		c0.9,0,1.4,0.2,1.4,0.7c0,0.2-0.1,0.4-0.3,0.8c-0.2,0.4-0.3,0.7-0.3,1c0,0.1,0,0.5-0.1,1c-0.1,0.6-0.2,1.4-0.3,2.4
		c-0.1,0.9-0.2,1.7-0.3,2.4c-0.1,0.7-0.1,1.3-0.1,1.9c0,2.9,0.5,4.4,1.5,4.4c0.9,0,1.8-1.7,2.7-5c0.4-1.3,0.9-3.4,1.7-6.2
		c0.1-0.5,0.3-0.7,0.6-0.7c0.3,0,0.4,0.2,0.4,0.6c0,1.1-0.5,3.3-1.6,6.5C82.8,34.3,81.5,36.4,80.1,36.4 M94.9,23.5
		c0,0.2-0.2,1.3-0.7,3.1c-1.2,4.7-2.3,7.8-3.5,9.4c-0.7,0.9-1.6,1.4-2.6,1.4c-1.4,0-2.5-0.7-3.3-2.1c-0.7-1.2-1-2.5-1-3.9
		c0-1,0-2,0.1-3c0.1-1.1,0.2-2.2,0.4-3.4c0.6-3.4,1.4-5.1,2.6-5.1c0.7,0,1.3,0.2,1.9,0.7c0.6,0.5,0.9,1,0.9,1.7c0,2.3-0.6,4.9-2,7.7
		c-0.5,1.2-1.2,2.4-2,3.6c0,0.5,0.3,1.1,0.9,1.8c0.5,0.6,1.1,1,1.7,0.9c1.6,0,3.3-3.6,5.1-10.7c0.5-1.8,0.8-2.7,0.9-2.7
		C94.6,22.9,94.9,23.1,94.9,23.5 M88.4,22.7c0-1.1-0.3-1.6-0.7-1.6c-0.3,0-0.4,0.2-0.6,0.6c-1.2,3.4-1.7,6.8-1.7,10.1
		c0.7-0.4,1.4-1.8,2.1-4.2C88.1,25.5,88.4,23.9,88.4,22.7 M108.6,23.5c0,0.9-0.5,3-1.6,6.3c-1.5,4.5-2.7,6.8-3.6,6.8
		c-1.2,0-2-1.1-2.5-3.3c-0.1-0.6-0.3-1.6-0.4-2.9c-0.1-1.3-0.2-3-0.4-5.1c-0.2,0.6-0.4,1.6-0.9,3.1c-0.4,1.5-0.9,3.5-1.5,6
		c-0.3,1.3-0.8,2-1.5,2c-1,0-1.6-0.6-1.9-1.9l-0.2-3.5C94,29.7,94,28.5,94,27.4l0.1-1.7l-0.4-0.9c0-0.8,0.1-1.4,0.2-1.7
		c0.2-0.5,0.6-0.8,1.2-0.8c0.6,0,1,0.3,1,0.8c0,0.2-0.1,0.6-0.3,1.2c-0.2,0.6-0.3,1.1-0.3,1.5c0,0.3,0,0.6,0,1.1c0,0.4,0,0.9,0,1.4
		c0,0.6,0,1.1,0,1.5c0,0.4,0,0.7,0,1c0,2.2,0.3,3.3,0.8,3.3c0.2,0,0.4-0.4,0.6-1.2c0.4-1.8,0.8-3,1-3.5c0.4-1.4,0.8-2.7,1.1-3.9
		c0.3-1.2,0.4-2.3,0.5-3.3c0.1-1.3,0.3-2.1,0.6-2.3c1.7,0.1,2.5,0.6,2.5,1.5c0-0.7-0.1-0.8-0.2-0.4c-0.1,0.4-0.2,1.4-0.3,3
		c-0.1,1.5-0.2,2.8-0.3,3.8c-0.1,1-0.1,1.7-0.1,2.1c0,3.3,0.5,5,1.4,5c0.8,0,1.7-1.7,2.7-5c0.3-1,0.6-1.9,0.9-2.9
		c0.3-0.9,0.5-1.9,0.7-2.9c0.2-1,0.5-1.4,0.8-1.4C108.4,22.8,108.6,23,108.6,23.5 M100.8,17.5c-0.3-0.2-0.6-0.4-1-0.7
		c-0.4-0.3-0.8-0.7-1.3-1.1c-0.7-0.8-1.3-1.2-1.9-1.2c-0.4,0-0.7,0.3-0.9,0.9c-0.2,0.5-0.3,0.7-0.4,0.7c-0.2,0-0.2-0.3-0.3-0.8
		c0-1.2,0.4-1.9,1.2-2.1c0.6-0.1,1.4,0.3,2.5,1.2c0.3,0.3,0.5,0.6,0.9,0.9c0.3,0.3,0.7,0.5,1.1,0.6c0.1,0,0.2,0,0.3,0
		c0.4,0,0.9-0.6,1.6-1.8c0.1-0.1,0.1-0.1,0.2-0.2c0.1,0.1,0.2,0.3,0.2,0.7c0,0.8-0.2,1.5-0.7,2.1c-0.4,0.6-0.9,0.9-1.3,0.9
		C101.1,17.6,101,17.6,100.8,17.5 M120.6,23c0,1.4-0.4,3-1.2,4.8c-0.7,1.6-1.7,2.5-2.9,2.5c-0.2,0-0.7-0.2-1.7-0.5
		c-0.1,0.3,0-0.1-0.1,0.3c-0.1,0.4-0.4,0.1-0.5,0.7c-0.2,0.7-0.5,1.3-0.7,1.8c-0.2,0.5-0.4,0.9-0.5,1.1c-0.6,1-1.4,1.5-2.4,1.5
		c-2.4,0-3.5-0.7-3.6-5.3c0-2.9,0.2-4.9,0.7-6c0,0.1,0,0.1,0,0.1c0-0.1,0-0.2,0-0.4c0-0.2-0.1-0.4-0.1-0.5c0-0.2,0-0.3,0-0.3
		c0-0.3,0.1-0.5,0.3-0.7c0.1-0.2,0.1-0.4,0.2-0.7c0.1-0.3,0.2-0.7,0.3-1.3c0.2-1.1,0.8-1.6,1.6-1.6c0.8,0,1.7,0.3,2.6,1
		c0.9,0.7,1.6,1.4,1.8,2.1c0.3,0.7,0.4,3,0.5,6.7c0.5,0.3,0.9,0.5,1.2,0.5c1.1,0,2-0.6,2.5-1.8c0.3-0.5,0.6-1.7,1-3.7
		c0.1-0.6,0.3-0.8,0.6-0.8C120.4,22.6,120.6,22.7,120.6,23 M113.3,30c0-0.3,0-0.8-0.1-1.2c-0.1-0.5-0.2-1.1-0.3-1.7
		c-0.1-0.7-0.2-1.2-0.3-1.7c-0.1-0.5-0.1-0.9-0.1-1.2c0-0.2,0-0.6,0.1-1c0-0.5,0.1-0.8,0.1-1c0-1.1-0.5-1.6-1.6-1.6
		c-0.7,0-1.3,1.5-1.7,4.4c-0.5,2.5-0.7,4.4-0.7,5.7c0,3.3,0.8,3.4,2.2,3.4c0.4,0,0.8-0.6,1.4-1.9C113,30.5,113.3,30.8,113.3,30
		 M124.3,32.5c0,1.1-0.2,2-0.6,3c-0.6,1.1-1.4,1.6-2.5,1.6c-1,0-1.8-0.4-2.5-1.1c-0.5-0.5-0.8-1-0.8-1.5c0-0.6,0.1-0.9,0.4-1
		c0.2,0,0.3,0.2,0.4,0.7c0.6,1.2,1.2,1.8,1.8,1.7c1.5,0,2.2-1.2,2.2-3.7c0-1.1-0.4-2.7-1-4.9c-0.4-1.1-0.7-2.1-1.1-2.9
		c-0.1,0.4-0.3,1-0.5,1.7c-0.2,0.7-0.4,1.5-0.7,2.4c-0.3,1.1-0.7,1.6-1.2,1.6c-0.1,0-0.2,0-0.4-0.1c1.3-4.8,1.9-8.2,1.8-10.3
		c0-0.8,0.4-1.3,1.2-1.3c0.9,0,1.4,0.3,1.4,0.9c0,0.1,0,0.2-0.1,0.5c0,0.2-0.1,0.5-0.2,0.7c-0.1,0.2-0.1,0.5-0.2,0.7
		c0,0.2-0.1,0.4-0.1,0.6c0,1.2,0.4,3,1.2,5.4C123.9,29.6,124.3,31.3,124.3,32.5 M139,35.7c0.5,0,1.3-1.4,2.2-4.2
		c0.6-1.8,1.2-3.9,1.8-6.2c0.2-0.6,0.4-1,0.6-1c0.2,0,0.4,0.2,0.4,0.6c0,0.9-0.5,3.1-1.7,6.3c-1.3,3.6-2.3,5.5-3.1,5.5
		c-1.4,0-2.3-1.3-2.6-4.1c-0.3,0.8-0.6,1.4-0.8,1.8c-0.2,0.4-0.4,0.7-0.5,0.9c-0.7,1.3-1.4,1.9-2.1,1.9c-0.9,0-1.6-0.5-2.2-1.5
		c-0.4-0.7-0.6-1.7-0.6-2.7c0-2.2,0.4-4.7,1.3-7.6c1-3.1,2.1-4.7,3.2-4.7c0.4,0,0.9,0.2,1.4,0.6c0.6,0.4,0.9,0.6,0.9,0.6
		c0.1,0,0.1,0,0.2-0.1c0.2-1.3,0.4-0.1,0.7-2.1c0.3-2-0.2-2.2,0.2-4.8c-0.1-0.7,0-1.2,0.4-1.3c0.1,0,0.4,0,0.8,0
		c0.7,0,1,0.4,0.9,1.2c-0.2,0.9-0.4,2-0.6,3.3c-0.2,1.3-0.2,0.9-0.6,2.7c0,0.2,0.2-2,0.1-0.7c-0.2,1.3-0.4,3.2-0.7,5.6
		c-0.2,1.8-0.4,3.3-0.5,4.5c-0.1,1.2-0.2,2-0.2,2.5C138,34.5,138.3,35.6,139,35.7 M135.7,22.6c-1,0-1.9,1.4-2.7,4.1
		c-0.7,2.3-1,4.1-1,5.4c0,2.7,0.4,4,1,4c0.7,0,1.4-1,2.2-3.1c0.3-0.8,0.6-1.5,0.8-2.2c0.2-0.7,0.4-1.4,0.6-2.1
		c0-0.2,0.1-0.4,0.1-0.8c0-0.3,0.1-0.8,0.1-1.3c0.1-0.4,0.1-0.8,0.1-1.2c0-0.3,0-0.7,0-0.9C137,23.2,136.6,22.6,135.7,22.6
		 M152.4,24.7c0,0.2-0.2,1.1-0.6,2.8c-1.1,4.2-2.2,7-3.2,8.4c-0.7,0.8-1.5,1.2-2.4,1.2c-1.3,0-2.3-0.6-3.1-1.9
		c-0.6-1.1-0.9-2.3-0.9-3.5c0-0.9,0-1.8,0.1-2.7c0.1-0.9,0.2-1.9,0.4-3c0.5-3,1.3-4.5,2.4-4.6c0.6,0,1.2,0.2,1.8,0.6
		c0.5,0.4,0.8,0.9,0.8,1.5c0,2-0.6,4.4-1.8,6.9c-0.5,1.1-1.1,2.1-1.8,3.2c0,0.5,0.3,1,0.8,1.6c0.5,0.6,1,0.9,1.5,0.9
		c1.4,0,3-3.2,4.7-9.5c0.4-1.6,0.7-2.4,0.8-2.4C152.2,24.2,152.4,24.4,152.4,24.7 M146.5,24c0-0.9-0.2-1.4-0.6-1.4
		c-0.2,0-0.4,0.2-0.5,0.5c-1.1,3.1-1.6,6.1-1.5,9c0.7-0.4,1.3-1.7,1.9-3.8C146.2,26.5,146.5,25.1,146.5,24 M158.8,44H15.9v-1.2
		h142.9V44z"/>
</g>
</svg>
